<?xml version="1.0" encoding="UTF-8"?>
<svg version="1.1" xmlns="http://www.w3.org/2000/svg" width="512" height="512">
<path d="M0 0 C3.33561601 1.83840937 6.47242944 3.92865755 9.625 6.0625 C10.51364746 6.64797607 11.40229492 7.23345215 12.31787109 7.83666992 C16.14290109 10.36475501 19.93428527 12.91957722 23.625 15.640625 C24.615 16.35734375 25.605 17.0740625 26.625 17.8125 C27.44226563 18.43769531 28.25953125 19.06289063 29.1015625 19.70703125 C37.86790795 23.61762471 49.61339359 20.20259639 58.875 19 C61.12027694 18.71258912 63.36575718 18.42697632 65.61160278 18.14404297 C67.63329826 17.88875016 69.6543177 17.62812037 71.67529297 17.3671875 C75 17 75 17 79 17 C80.39697266 18.58203125 80.39697266 18.58203125 81.6640625 20.8125 C82.38094238 22.04444092 82.38094238 22.04444092 83.11230469 23.30126953 C83.61149414 24.19185059 84.11068359 25.08243164 84.625 26 C85.68335652 27.83161948 86.74327683 29.66233618 87.8046875 31.4921875 C88.33545898 32.41483398 88.86623047 33.33748047 89.41308594 34.28808594 C92.16397644 38.9891462 95.10429557 43.5698111 98.05322266 48.1484375 C101 52.78726682 101 52.78726682 101 55 C101.60046143 55.15057861 102.20092285 55.30115723 102.81958008 55.45629883 C111.60311261 57.7483268 120.1219763 60.703487 128.6875 63.6875 C130.17892263 64.20410479 131.67045837 64.72038314 133.16210938 65.23632812 C136.77605254 66.48713198 140.38844368 67.74232186 144 69 C144.4617448 72.60373772 144.91891135 76.20804229 145.375 79.8125 C145.58189453 81.4353894 145.58189453 81.4353894 145.79296875 83.09106445 C146.44463048 88.27200358 147.06426755 93.44803634 147.5390625 98.6484375 C147.61850098 99.50332764 147.69793945 100.35821777 147.77978516 101.23901367 C147.92305643 102.83199328 148.05609559 104.42593747 148.17724609 106.02075195 C148.88086921 113.77189892 152.28365072 117.60614149 157.6875 122.875 C158.2235083 123.40456299 158.7595166 123.93412598 159.31176758 124.47973633 C162.77777313 127.87911796 166.34445612 131.11994268 170.04296875 134.265625 C173.87183718 137.65887367 177.42126003 141.34670295 181 145 C179.98485509 148.10605432 178.96218842 151.20958168 177.9375 154.3125 C177.62748047 155.25569092 177.31746094 156.19888184 176.99804688 157.1706543 C175.41448948 161.93924905 173.77465433 166.66490226 171.94140625 171.34375 C171.61599854 172.18123779 171.29059082 173.01872559 170.95532227 173.8815918 C170.33423459 175.46200834 169.69872949 177.03686078 169.04663086 178.60473633 C168.62136108 179.69177856 168.62136108 179.69177856 168.1875 180.80078125 C167.93355469 181.42122314 167.67960937 182.04166504 167.41796875 182.6809082 C166.2304389 189.26989537 168.665427 195.57361776 170.94140625 201.65625 C171.22853989 202.44398804 171.51567352 203.23172607 171.81150818 204.04333496 C172.72062475 206.53186324 173.64133292 209.01591059 174.5625 211.5 C175.18501937 213.19763283 175.80677171 214.89554714 176.42773438 216.59375 C177.9429775 220.73247265 179.46862378 224.86722106 181 229 C177.23942502 233.53744183 173.33233462 237.72321062 169.015625 241.73046875 C167.90359665 242.7909025 166.79296031 243.85279757 165.68359375 244.91601562 C163.96850352 246.5572937 162.24806385 248.18928441 160.50244141 249.7980957 C151.42733502 258.1880338 151.42733502 258.1880338 148.11279297 269.8371582 C148.05696045 271.40276489 148.05696045 271.40276489 148 273 C147.73839975 275.45947673 147.46573203 277.91779458 147.18359375 280.375 C146.93103546 282.91628598 146.6823752 285.45796219 146.4375 288 C146.18887393 290.56276102 145.93768768 293.12527533 145.68359375 295.6875 C145.57587646 296.80511719 145.46815918 297.92273438 145.35717773 299.07421875 C145.18037476 300.52248047 145.18037476 300.52248047 145 302 C144.9390918 302.74064697 144.87818359 303.48129395 144.81542969 304.24438477 C144 306 144 306 141.53833008 307.29272461 C140.45962646 307.65889893 139.38092285 308.02507324 138.26953125 308.40234375 C137.07263672 308.81806641 135.87574219 309.23378906 134.64257812 309.66210938 C133.36604817 310.08772803 132.08935478 310.51285681 130.8125 310.9375 C129.59884766 311.35451172 128.38519531 311.77152344 127.13476562 312.20117188 C125.92111328 312.61818359 124.70746094 313.03519531 123.45703125 313.46484375 C122.22823242 313.89200684 120.99943359 314.31916992 119.73339844 314.75927734 C117.25322991 315.58351331 114.74949368 316.34006132 112.22753906 317.02587891 C104.10864439 319.40264255 100.16419759 321.99551127 95.84008789 329.31640625 C94.99111938 330.89228516 94.99111938 330.89228516 94.125 332.5 C93.50423584 333.57121094 92.88347168 334.64242188 92.24389648 335.74609375 C91.02171927 337.85798526 89.81494627 339.97888383 88.62548828 342.109375 C86.54474959 345.80957718 84.32125441 349.40695586 82.0625 353 C81.0407203 354.66608665 80.01941193 356.33246356 79 358 C68.09706178 357.52878508 57.34318106 356.4006812 46.51977539 355.01635742 C45.48844482 354.88592041 44.45711426 354.7554834 43.39453125 354.62109375 C42.47518799 354.5017749 41.55584473 354.38245605 40.60864258 354.25952148 C34.7133637 353.63775657 34.7133637 353.63775657 29.4609375 355.984375 C28.80706055 356.41983643 28.15318359 356.85529785 27.47949219 357.30395508 C26.78500977 357.7811499 26.09052734 358.25834473 25.375 358.75 C23.86755652 359.74925483 22.3597287 360.74793005 20.8515625 361.74609375 C18.37575255 363.40355882 15.90299319 365.06540303 13.43261719 366.73095703 C10.88238864 368.44149957 8.31752835 370.12807375 5.75 371.8125 C4.95255371 372.3580957 4.15510742 372.90369141 3.33349609 373.46582031 C2.57891113 373.95791992 1.82432617 374.45001953 1.046875 374.95703125 C0.38526367 375.40022705 -0.27634766 375.84342285 -0.95800781 376.30004883 C-3 377 -3 377 -5.4140625 376.33178711 C-8.17206559 374.91138427 -10.79524573 373.38600242 -13.421875 371.734375 C-14.44796875 371.09113281 -15.4740625 370.44789063 -16.53125 369.78515625 C-17.5934375 369.11355469 -18.655625 368.44195312 -19.75 367.75 C-21.32007813 366.76580078 -21.32007813 366.76580078 -22.921875 365.76171875 C-27.66842866 362.77732314 -32.3466897 359.76076409 -36.921875 356.51953125 C-40.30646662 354.26034301 -42.34736853 353.29628485 -46.5 353.9375 C-48.13001953 354.15019531 -48.13001953 354.15019531 -49.79296875 354.3671875 C-50.74695557 354.51365723 -50.74695557 354.51365723 -51.72021484 354.66308594 C-55.61866436 355.23921148 -59.53266458 355.688341 -63.4453125 356.15649414 C-65.65344477 356.42274443 -67.86055154 356.69767411 -70.06640625 356.98217773 C-72.12033387 357.24163299 -74.17741422 357.47750048 -76.23706055 357.68676758 C-78.93214759 357.93902961 -78.93214759 357.93902961 -81.25708008 358.5222168 C-83.2578125 358.859375 -83.2578125 358.859375 -87 358 C-90.29587927 354.26552857 -92.64900777 350.01915421 -95.0625 345.6875 C-95.73486016 344.52638634 -96.40997002 343.36686035 -97.08789062 342.20898438 C-97.75111328 341.07138672 -98.41433594 339.93378906 -99.09765625 338.76171875 C-99.43680557 338.18995407 -99.7759549 337.61818939 -100.12538147 337.02909851 C-101.67908656 334.3885724 -103.08853129 331.79426905 -104.30053711 328.9777832 C-108.28057466 320.69445995 -114.4361583 318.55201625 -122.67640686 315.65995789 C-125.58933364 314.68632748 -128.51235149 313.74869204 -131.4375 312.8125 C-133.43022554 312.14350547 -135.4217792 311.47100955 -137.41210938 310.79492188 C-142.26214394 309.15585866 -147.12566532 307.56524081 -152 306 C-153.07658496 298.90404852 -154.0583615 291.82809975 -154.74609375 284.68359375 C-154.86146484 283.48798828 -154.97683594 282.29238281 -155.09570312 281.06054688 C-155.32682161 278.61069097 -155.5505829 276.16013161 -155.76757812 273.70898438 C-155.88423828 272.52498047 -156.00089844 271.34097656 -156.12109375 270.12109375 C-156.2183374 269.0633374 -156.31558105 268.00558105 -156.41577148 266.91577148 C-157.70830946 260.46496452 -162.11644224 256.61284663 -166.63671875 252.16796875 C-167.27615921 251.53135818 -167.91559967 250.89474762 -168.57441711 250.23884583 C-170.60744499 248.21696667 -172.64733362 246.20217332 -174.6875 244.1875 C-176.07142297 242.81361367 -177.45489168 241.43926961 -178.83789062 240.06445312 C-182.22002237 236.70431133 -185.60832238 233.35050495 -189 230 C-187.65033758 226.07093989 -186.29936266 222.14233408 -184.94726562 218.21411133 C-184.4892385 216.88284971 -184.03154576 215.55147299 -183.57421875 214.2199707 C-183.13001533 212.92681271 -182.68523461 211.63385287 -182.23986816 210.34109497 C-181.79840214 209.0581276 -181.3588693 207.77449342 -180.92126465 206.49020386 C-179.92642273 203.58889308 -178.88875079 200.72339087 -177.74414062 197.87744141 C-177.36966797 196.94464355 -176.99519531 196.0118457 -176.609375 195.05078125 C-176.10615723 193.86415894 -176.10615723 193.86415894 -175.59277344 192.65356445 C-174.09477343 185.94773162 -176.61391331 179.56405433 -178.94140625 173.34375 C-179.22853989 172.55601196 -179.51567352 171.76827393 -179.81150818 170.95666504 C-180.72062475 168.46813676 -181.64133292 165.98408941 -182.5625 163.5 C-183.18501937 161.80236717 -183.80677171 160.10445286 -184.42773438 158.40625 C-185.9429775 154.26752735 -187.46862378 150.13277894 -189 146 C-188.04813307 144.88280721 -187.09531086 143.76642829 -186.14208984 142.65039062 C-185.61159027 142.02861938 -185.0810907 141.40684814 -184.53451538 140.76623535 C-180.05907459 135.61497924 -175.10129301 130.89114466 -169.9375 126.4375 C-169.29425781 125.87160156 -168.65101563 125.30570312 -167.98828125 124.72265625 C-166.61562329 123.53337892 -165.21485548 122.37605329 -163.79296875 121.24609375 C-159.4943953 117.53615378 -157.59036582 114.82701241 -156.87109375 109.1328125 C-156.72091797 107.98377441 -156.57074219 106.83473633 -156.41601562 105.65087891 C-156.21008789 103.84369385 -156.21008789 103.84369385 -156 102 C-155.79407227 100.21795166 -155.79407227 100.21795166 -155.58398438 98.39990234 C-155.18216809 94.76836517 -154.80529435 91.13513144 -154.4375 87.5 C-154.18834212 85.05186416 -153.93712315 82.60393699 -153.68359375 80.15625 C-153.57587646 79.09212891 -153.46815918 78.02800781 -153.35717773 76.93164062 C-153.23930908 75.96419922 -153.12144043 74.99675781 -153 74 C-153.00966797 72.68189331 -153.00966797 72.68189331 -153.01953125 71.3371582 C-151.75572489 68.44002739 -151.01719003 68.31075066 -148.15454102 67.1472168 C-146.44495257 66.55956592 -144.72729834 65.99506298 -143.00390625 65.44921875 C-142.1000267 65.14554886 -141.19614716 64.84187897 -140.26487732 64.52900696 C-137.37019343 63.56215572 -134.46679241 62.62504197 -131.5625 61.6875 C-129.60810893 61.03765405 -127.65432357 60.38598341 -125.70117188 59.73242188 C-122.12919176 58.54612678 -118.55634536 57.36310816 -114.97485352 56.20581055 C-114.25395035 55.97218307 -113.53304718 55.7385556 -112.79029846 55.49784851 C-111 55 -111 55 -109 55 C-108.7328418 54.28158936 -108.46568359 53.56317871 -108.19042969 52.82299805 C-106.98630627 49.96752653 -105.57673118 47.4695401 -103.953125 44.83203125 C-103.355 43.85556641 -102.756875 42.87910156 -102.140625 41.87304688 C-101.51671875 40.86306641 -100.8928125 39.85308594 -100.25 38.8125 C-99.02574393 36.81919325 -97.80178317 34.82570509 -96.578125 32.83203125 C-95.98322266 31.86475098 -95.38832031 30.8974707 -94.77539062 29.90087891 C-92.15426341 25.61811852 -89.57313434 21.31172258 -87 17 C-75.88113013 18.00874228 -64.79355747 19.06211752 -53.73828125 20.6328125 C-52.50464844 20.75398438 -51.27101562 20.87515625 -50 21 C-49.22930176 21.08660889 -48.45860352 21.17321777 -47.66455078 21.26245117 C-40.29413658 21.74163554 -36.12778714 19.27586334 -30.25 15.0625 C-28.95618408 14.18247314 -28.95618408 14.18247314 -27.63623047 13.28466797 C-25.07651802 11.54284618 -22.53662041 9.77522794 -20 8 C-17.38929212 6.1860666 -14.76395412 4.39748059 -12.125 2.625 C-11.07570312 1.89539063 -10.02640625 1.16578125 -8.9453125 0.4140625 C-5.18280235 -1.39234158 -3.94879695 -1.35620089 0 0 Z M-34 62 C-35.27101563 62.31710938 -36.54203125 62.63421875 -37.8515625 62.9609375 C-56.11603777 67.93214301 -72.57303705 76.85055425 -87 89 C-87.54446777 89.44956055 -88.08893555 89.89912109 -88.64990234 90.36230469 C-113.41815537 111.00634135 -129.17670259 142.09251951 -132.71875 174.0390625 C-134.86456339 204.25926776 -128.84097882 234.97911507 -111 260 C-110.28328125 261.01320313 -109.5665625 262.02640625 -108.828125 263.0703125 C-88.33940834 291.23587914 -58.45145178 309.79726241 -24.05078125 315.40405273 C8.53419855 320.26449061 42.64196458 313.29028464 69.6875 293.9375 C75.45131616 289.65671257 80.81719468 284.96207256 86 280 C86.74636719 279.31679688 87.49273437 278.63359375 88.26171875 277.9296875 C111.25331485 256.18196484 124.05596632 223.82728846 125.203125 192.53515625 C125.83707846 156.08888929 112.82393795 123.64117194 88 97 C69.92010925 78.68046416 47.1434967 66.40915163 22 61 C20.98164063 60.75765625 19.96328125 60.5153125 18.9140625 60.265625 C1.90082388 56.89034442 -17.20698835 57.81026281 -34 62 Z " fill="#08B625" transform="translate(260,1)"/>
<path d="M0 0 C21.82640486 16.91334607 35.84855764 40.47120356 39.61328125 67.84765625 C42.14787774 93.83367073 36.45015141 120.21715085 20.0625 141.0625 C18.71764035 142.65374615 17.36370174 144.23737163 16 145.8125 C15.39671875 146.56015625 14.7934375 147.3078125 14.171875 148.078125 C-1.67844304 167.12514584 -25.75944288 177.65641283 -50 180.4375 C-76.93629054 182.73083743 -102.99345992 174.93136003 -124 157.8125 C-124.83917969 157.13703125 -125.67835938 156.4615625 -126.54296875 155.765625 C-144.90811853 140.16236596 -156.66091485 117.08926893 -159.71875 93.2734375 C-161.93426934 66.01024116 -155.81221733 39.61413594 -138.5625 17.9375 C-137.06276717 16.21061314 -135.54207211 14.50168632 -134 12.8125 C-133.25363281 11.97332031 -132.50726563 11.13414063 -131.73828125 10.26953125 C-97.57660394 -26.15076935 -39.55553415 -28.55940111 0 0 Z " fill="#08B525" transform="translate(316,108.1875)"/>
<path d="M0 0 C0.92298889 1.8626709 0.92298889 1.8626709 1.70727539 4.34960938 C2.00997849 5.28879211 2.31268158 6.22797485 2.6245575 7.19561768 C3.10624138 8.75394318 3.10624138 8.75394318 3.59765625 10.34375 C3.94435867 11.43145691 4.2910611 12.51916382 4.64826965 13.63983154 C5.79787313 17.25634648 6.93013274 20.87805484 8.0625 24.5 C8.85780508 27.01303788 9.6542065 29.52572903 10.45166016 32.03808594 C12.33893004 37.99014219 14.21387049 43.94600614 16.08421326 49.90340042 C18.3965443 57.26684306 20.72346517 64.6256577 23.05078125 71.984375 C25.42512884 79.49273481 27.79800452 87.00154053 30.16040039 94.51367188 C30.70382332 96.24040131 30.70382332 96.24040131 31.25822449 98.00201416 C31.92705472 100.12784514 32.59511041 102.25392006 33.26216125 104.38031006 C35.17244794 110.44971925 37.16859258 116.48094637 39.25491333 122.49237061 C40 125 40 125 40 128 C39.34061935 127.96241577 38.68123871 127.92483154 38.00187683 127.8861084 C31.04090766 127.49040463 24.07954301 127.10228521 17.11791992 126.71826172 C14.53155164 126.57463707 11.94528439 126.42917921 9.35913086 126.28173828 C0.90816356 125.80069581 -7.54343553 125.36996688 -16 125 C-16.99612305 124.95280823 -17.99224609 124.90561646 -19.01855469 124.85699463 C-21.64400339 124.74262849 -24.2674078 124.6642237 -26.89453125 124.6015625 C-27.6308931 124.56639526 -28.36725494 124.53122803 -29.12593079 124.49499512 C-35.66717587 124.41986762 -39.09290283 127.31800634 -43.66430664 131.51953125 C-44.09606201 131.98746094 -44.52781738 132.45539063 -44.97265625 132.9375 C-47.85756955 135.92581187 -50.97585822 138.39191774 -54.3125 140.875 C-59.2969503 144.64484164 -64.16271588 148.54347972 -69 152.5 C-71.66439656 154.66947015 -74.33168427 156.83535292 -77 159 C-77.95447021 159.77682129 -77.95447021 159.77682129 -78.92822266 160.56933594 C-80.71427701 162.01587696 -82.5111995 163.44751557 -84.3125 164.875 C-85.33988281 165.69742188 -86.36726563 166.51984375 -87.42578125 167.3671875 C-88.27527344 167.90601563 -89.12476563 168.44484375 -90 169 C-90.99 168.67 -91.98 168.34 -93 168 C-94.16664124 165.35494995 -94.16664124 165.35494995 -95.29321289 161.76904297 C-95.50192017 161.11643494 -95.71062744 160.4638269 -95.92565918 159.79144287 C-96.6195452 157.61183286 -97.29597206 155.42719345 -97.97265625 153.2421875 C-98.45899192 151.70327983 -98.94643367 150.16472131 -99.43492126 148.62649536 C-100.72899698 144.54158072 -102.00856481 140.45226162 -103.28503418 136.36181641 C-104.79501452 131.53196565 -106.32172202 126.7073859 -107.84596825 121.88202286 C-109.09666822 117.92082402 -110.34374558 113.95856615 -111.58242798 109.99359131 C-114.00239212 102.25728788 -116.46811042 94.54157126 -119.04638672 86.85644531 C-119.52760753 85.4108934 -120.00860532 83.96526723 -120.48936462 82.51956177 C-121.38623627 79.82298894 -122.30152658 77.13366883 -123.22755432 74.44699097 C-123.62353317 73.25679352 -124.01951202 72.06659607 -124.42749023 70.84033203 C-124.78093002 69.80361359 -125.13436981 68.76689514 -125.4985199 67.69876099 C-126 65 -126 65 -125.24223328 62.74446106 C-123.48380157 60.27510551 -121.41841791 59.07856255 -118.8359375 57.50390625 C-117.79566406 56.86259766 -116.75539063 56.22128906 -115.68359375 55.56054688 C-114.59175781 54.90119141 -113.49992187 54.24183594 -112.375 53.5625 C-110.77205078 52.57926758 -110.77205078 52.57926758 -109.13671875 51.57617188 C-107.04458784 50.29335852 -104.94678288 49.01974643 -102.84301758 47.75610352 C-101.11455324 46.68844839 -99.41000712 45.57874162 -97.7565918 44.39819336 C-92.62378112 40.75787054 -89.20945138 40.50884601 -83.0625 41.4375 C-81.76469604 41.59677979 -81.76469604 41.59677979 -80.44067383 41.75927734 C-78.4572726 42.00523063 -76.47547456 42.26432526 -74.49511719 42.53369141 C-70.43067058 43.07595831 -66.36121432 43.56268408 -62.2890625 44.04296875 C-54.18929248 45.00179649 -46.09391395 45.99293328 -38 47 C-37.71946777 46.26152832 -37.43893555 45.52305664 -37.14990234 44.76220703 C-36.11783447 42.2830529 -34.98373569 40.10045521 -33.6015625 37.8046875 C-33.12823486 37.01513672 -32.65490723 36.22558594 -32.16723633 35.41210938 C-30.0079377 31.85988026 -27.84484274 28.31002969 -25.67431641 24.76464844 C-24.03680628 22.06077491 -22.44292828 19.33504896 -20.85546875 16.6015625 C-19.84201056 14.90052617 -18.82771885 13.19998611 -17.8125 11.5 C-17.36277832 10.70577637 -16.91305664 9.91155273 -16.44970703 9.09326172 C-13.39000921 4.06076338 -10.51473196 1.71200662 -5.05737305 -0.52148438 C-3 -1 -3 -1 0 0 Z " fill="#08B525" transform="translate(392,343)"/>
<path d="M0 0 C4.54241649 0.71289434 8.65022292 1.52027098 11.8359375 5.01269531 C12.36445313 5.81803711 12.89296875 6.62337891 13.4375 7.453125 C14.02926025 8.34950684 14.62102051 9.24588867 15.23071289 10.16943359 C18.05555287 14.68870981 20.76869497 19.26222555 23.4375 23.875 C24.58528519 25.80117011 25.73371855 27.72695413 26.8828125 29.65234375 C28.72772936 32.76570939 30.47169927 35.87516826 32.0546875 39.12890625 C33.81977351 42.45119036 35.14041297 44.56818905 38 47 C41.4040102 47.41496567 41.4040102 47.41496567 45.19140625 46.91796875 C45.8913974 46.85453278 46.59138855 46.7910968 47.31259155 46.72573853 C49.54596238 46.51338076 51.77196221 46.26217021 54 46 C55.07134689 45.87834976 55.07134689 45.87834976 56.16433716 45.75424194 C61.89398339 45.09539196 67.61140708 44.34789377 73.32714844 43.57861328 C75.46979966 43.29232307 77.61362414 43.0166912 79.7578125 42.7421875 C81.0070752 42.5757373 82.25633789 42.40928711 83.54345703 42.23779297 C89.34577601 41.83862227 93.18450937 42.75684225 98.046875 45.9140625 C98.975 46.51089844 99.903125 47.10773438 100.859375 47.72265625 C101.81328125 48.35042969 102.7671875 48.97820312 103.75 49.625 C104.6884375 50.22957031 105.626875 50.83414063 106.59375 51.45703125 C112.83025028 55.49697411 118.93585763 59.70683006 125 64 C122.84039684 72.26695018 120.32998745 80.38893055 117.68359375 88.51171875 C117.26591918 89.80042737 116.84851122 91.08922242 116.43135071 92.37809753 C115.55370841 95.0884837 114.67471388 97.79842542 113.79455566 100.50799561 C111.527193 107.48892987 109.26920598 114.4728984 107.01171875 121.45703125 C106.68070601 122.4807785 106.68070601 122.4807785 106.34300613 123.52520752 C101.45385876 138.64991006 96.67085191 153.80644026 92 169 C87.13082913 169 85.31057861 167.2636102 81.75 164.3125 C81.1415625 163.82136719 80.533125 163.33023438 79.90625 162.82421875 C77.9297953 161.22537938 75.96473707 159.61320792 74 158 C72.67255286 156.91973941 71.3444267 155.84031269 70.015625 154.76171875 C68.00133917 153.12624624 65.98773508 151.48999683 63.97705078 149.85009766 C58.9868305 145.78323129 53.97257104 141.74721677 48.85839844 137.83666992 C46.25286234 135.83564499 43.86891833 133.86891833 41.5390625 131.5390625 C37.5085452 127.61859346 34.40827682 125.60700589 28.64682007 125.63232422 C27.94610382 125.65439941 27.24538757 125.67647461 26.5234375 125.69921875 C25.75818756 125.71138428 24.99293762 125.7235498 24.20449829 125.73608398 C11.58554785 126.00494607 -1.02471483 126.79736434 -13.625 127.5 C-16.28900958 127.64552235 -18.95309943 127.78950952 -21.6171875 127.93359375 C-28.07841034 128.28398912 -34.53931658 128.63980235 -41 129 C-39.55097989 121.89500826 -37.53663789 115.10638396 -35.28125 108.21875 C-34.91080063 107.07527603 -34.54035126 105.93180206 -34.15867615 104.75367737 C-33.15175229 101.64669972 -32.14145652 98.54084264 -31.12986374 95.43538284 C-29.19475481 89.489372 -27.27190405 83.53937611 -25.34765625 77.58984375 C-25.1284659 76.91259184 -24.90927555 76.23533993 -24.68344307 75.53756523 C-21.34765242 65.22762334 -18.05962248 54.90337685 -14.80859375 44.56640625 C-14.49754385 43.57788477 -14.49754385 43.57788477 -14.18021011 42.56939316 C-11.98477673 35.59124582 -9.79627553 28.6109565 -7.61328125 21.62890625 C-6.89720302 19.34763503 -6.18106073 17.06638391 -5.46484375 14.78515625 C-5.14172714 13.74621719 -4.81861053 12.70727814 -4.48570251 11.63685608 C-4.0363308 10.20798317 -4.0363308 10.20798317 -3.57788086 8.75024414 C-3.31986191 7.9244838 -3.06184296 7.09872345 -2.79600525 6.24794006 C-2.01989095 4.05617258 -1.0866233 2.05311157 0 0 Z " fill="#08B625" transform="translate(121,342)"/>
</svg>
